<?xml version="1.0" encoding="utf-8"?>
<!-- Generator: Adobe Illustrator 16.0.0, SVG Export Plug-In . SVG Version: 6.00 Build 0)  -->
<!DOCTYPE svg PUBLIC "-//W3C//DTD SVG 1.1//EN" "http://www.w3.org/Graphics/SVG/1.1/DTD/svg11.dtd">
<svg version="1.1" id="Capa_1" xmlns="http://www.w3.org/2000/svg" xmlns:xlink="http://www.w3.org/1999/xlink" x="0px" y="0px"
	 width="1200px" height="1200px" viewBox="0 0 1200 1200" enable-background="new 0 0 1200 1200" xml:space="preserve">
<path fill-rule="evenodd" clip-rule="evenodd" fill="#2177D6" d="M1150,97.987C928.52,343.937,709.902,589.448,527.223,866.832
	c-53.625,81.423-111.563,160.002-167.523,239.884c-14.109,0-28.227,0-42.34,0c-10.328-13.733-22.082-26.623-30.75-41.337
	c-51.121-86.771-101.68-173.868-152.098-261.052C110.41,762.649,73.703,707.209,50,665.3c0-1.57,0-3.133,0-4.703
	c51.418-65.533,123.797-64.802,196.57-61.008c5.992,0.314,14.313,10.292,16.68,17.403c21.934,65.856,56.129,145.412,77.301,211.527
	c0.852,2.667,1.699,5.335,3.66,11.47c37.992-41.238,73.891-80.148,109.738-119.115c142.016-154.383,281.363-308.58,435.934-451.012
	c75.93-69.965,156.984-131.377,251.281-174.268c2.727-1.243,5.879-1.562,8.836-2.311C1150,94.854,1150,96.421,1150,97.987z"/>
</svg>
